<svg width="80" height="37" viewBox="0 0 80 37" fill="none" xmlns="http://www.w3.org/2000/svg">
<path d="M9.09692 5.24142L14.7248 12.2842L14.693 27.7822L9.05959 31.7506L9.09692 5.24142Z" fill="#020A15"/>
<path d="M0.531982 5.24142L6.15983 12.2842L6.1281 27.7822L0.494652 31.7506L0.531982 5.24142Z" fill="#020A15"/>
<path d="M32.0318 28.8937C29.9518 28.8937 28.1318 28.4437 26.5718 27.5437C25.0118 26.6237 23.8018 25.3737 22.9418 23.7937C22.1018 22.1937 21.6818 20.3837 21.6818 18.3637C21.6818 16.8437 21.9318 15.4437 22.4318 14.1637C22.9518 12.8637 23.6718 11.7437 24.5918 10.8037C25.5318 9.86372 26.6318 9.13372 27.8918 8.61372C29.1518 8.09372 30.5318 7.83372 32.0318 7.83372C34.3718 7.83372 36.2918 8.32372 37.7918 9.30372C39.2918 10.2837 40.4918 11.6337 41.3918 13.3537L38.0918 14.4637C37.2518 13.2437 36.3318 12.3937 35.3318 11.9137C34.3518 11.4337 33.2518 11.1937 32.0318 11.1937C30.7318 11.1937 29.5718 11.5037 28.5518 12.1237C27.5318 12.7237 26.7218 13.5637 26.1218 14.6437C25.5218 15.7237 25.2218 16.9637 25.2218 18.3637C25.2218 19.7637 25.5218 21.0037 26.1218 22.0837C26.7218 23.1637 27.5318 24.0137 28.5518 24.6337C29.5718 25.2337 30.7318 25.5337 32.0318 25.5337C33.2518 25.5337 34.3518 25.2937 35.3318 24.8137C36.3318 24.3337 37.2518 23.4837 38.0918 22.2637L41.3918 23.3737C40.4918 25.0937 39.2918 26.4437 37.7918 27.4237C36.2918 28.4037 34.3718 28.8937 32.0318 28.8937ZM46.9742 28.7137C46.3942 28.7137 45.8642 28.5837 45.3842 28.3237C44.9042 28.0437 44.5242 27.6437 44.2442 27.1237C43.9642 26.5837 43.8242 25.9037 43.8242 25.0837V8.13372H47.2442V23.8537C47.2442 24.5137 47.3942 24.9537 47.6942 25.1737C47.9942 25.3937 48.3442 25.5037 48.7442 25.5037V28.4737C48.5042 28.5537 48.2242 28.6137 47.9042 28.6537C47.6042 28.6937 47.2942 28.7137 46.9742 28.7137ZM55.7663 28.9837C54.6463 28.9837 53.6763 28.7837 52.8563 28.3837C52.0563 27.9637 51.4363 27.3837 50.9963 26.6437C50.5563 25.9037 50.3363 25.0237 50.3363 24.0037C50.3363 23.0037 50.5563 22.1337 50.9963 21.3937C51.4563 20.6537 52.0963 20.0737 52.9163 19.6537C53.7363 19.2137 54.6863 18.9937 55.7663 18.9937C57.1863 18.9937 58.3263 19.3137 59.1863 19.9537C60.0663 20.5937 60.6663 21.4937 60.9863 22.6537L59.2463 22.5337V18.9037C59.2463 18.3037 59.0363 17.7637 58.6163 17.2837C58.2163 16.8037 57.5263 16.5637 56.5463 16.5637C55.9863 16.5637 55.3663 16.6337 54.6863 16.7737C54.0063 16.8937 53.3063 17.1237 52.5863 17.4637L51.5363 14.8837C52.3763 14.4637 53.2563 14.1437 54.1763 13.9237C55.1163 13.7037 56.0463 13.5937 56.9663 13.5937C58.2663 13.5937 59.3363 13.8337 60.1763 14.3137C61.0363 14.7737 61.6763 15.4037 62.0963 16.2037C62.5163 17.0037 62.7263 17.9237 62.7263 18.9637V28.5637H60.0563L59.2763 25.8337L60.9863 25.3237C60.6463 26.5237 60.0163 27.4337 59.0963 28.0537C58.1963 28.6737 57.0863 28.9837 55.7663 28.9837ZM56.5763 26.1337C57.3763 26.1337 58.0163 25.9437 58.4963 25.5637C58.9963 25.1837 59.2463 24.6637 59.2463 24.0037C59.2463 23.3037 58.9963 22.7737 58.4963 22.4137C58.0163 22.0337 57.3763 21.8437 56.5763 21.8437C55.7763 21.8437 55.1263 22.0337 54.6263 22.4137C54.1463 22.7737 53.9063 23.3037 53.9063 24.0037C53.9063 24.6637 54.1463 25.1837 54.6263 25.5637C55.1263 25.9437 55.7763 26.1337 56.5763 26.1337ZM69.7967 26.9737L63.9767 13.9237H67.5767L72.8567 25.7737L69.7967 26.9737ZM66.1967 34.2637L75.2867 13.9237H78.8867L69.7967 34.2637H66.1967Z" fill="black"/>
</svg>
