<svg width="80" height="37" viewBox="0 0 80 37" fill="none" xmlns="http://www.w3.org/2000/svg">
<path d="M9.10327 5.48291L14.7311 12.5256L14.6994 28.0237L9.06594 31.9921L9.10327 5.48291Z" fill="white"/>
<path d="M0.53833 5.48291L6.16617 12.5256L6.13444 28.0237L0.501 31.9921L0.53833 5.48291Z" fill="white"/>
<path d="M32.0382 29.1352C29.9582 29.1352 28.1382 28.6852 26.5782 27.7852C25.0182 26.8652 23.8082 25.6152 22.9482 24.0352C22.1082 22.4352 21.6882 20.6252 21.6882 18.6052C21.6882 17.0852 21.9382 15.6852 22.4382 14.4052C22.9582 13.1052 23.6782 11.9852 24.5982 11.0452C25.5382 10.1052 26.6382 9.37517 27.8982 8.85518C29.1582 8.33517 30.5382 8.07517 32.0382 8.07517C34.3782 8.07517 36.2982 8.56517 37.7982 9.54518C39.2982 10.5252 40.4982 11.8752 41.3982 13.5952L38.0982 14.7052C37.2582 13.4852 36.3382 12.6352 35.3382 12.1552C34.3582 11.6752 33.2582 11.4352 32.0382 11.4352C30.7382 11.4352 29.5782 11.7452 28.5582 12.3652C27.5382 12.9652 26.7282 13.8052 26.1282 14.8852C25.5282 15.9652 25.2282 17.2052 25.2282 18.6052C25.2282 20.0052 25.5282 21.2452 26.1282 22.3252C26.7282 23.4052 27.5382 24.2552 28.5582 24.8752C29.5782 25.4752 30.7382 25.7752 32.0382 25.7752C33.2582 25.7752 34.3582 25.5352 35.3382 25.0552C36.3382 24.5752 37.2582 23.7252 38.0982 22.5052L41.3982 23.6152C40.4982 25.3352 39.2982 26.6852 37.7982 27.6652C36.2982 28.6452 34.3782 29.1352 32.0382 29.1352ZM46.9805 28.9552C46.4005 28.9552 45.8705 28.8252 45.3905 28.5652C44.9105 28.2852 44.5305 27.8852 44.2505 27.3652C43.9705 26.8252 43.8305 26.1452 43.8305 25.3252V8.37517H47.2505V24.0952C47.2505 24.7552 47.4005 25.1952 47.7005 25.4152C48.0005 25.6352 48.3505 25.7452 48.7505 25.7452V28.7152C48.5105 28.7952 48.2305 28.8552 47.9105 28.8952C47.6105 28.9352 47.3005 28.9552 46.9805 28.9552ZM55.7726 29.2252C54.6526 29.2252 53.6826 29.0252 52.8626 28.6252C52.0626 28.2052 51.4426 27.6252 51.0026 26.8852C50.5626 26.1452 50.3426 25.2652 50.3426 24.2452C50.3426 23.2452 50.5626 22.3752 51.0026 21.6352C51.4626 20.8952 52.1026 20.3152 52.9226 19.8952C53.7426 19.4552 54.6926 19.2352 55.7726 19.2352C57.1926 19.2352 58.3326 19.5552 59.1926 20.1952C60.0726 20.8352 60.6726 21.7352 60.9926 22.8952L59.2526 22.7752V19.1452C59.2526 18.5452 59.0426 18.0052 58.6226 17.5252C58.2226 17.0452 57.5326 16.8052 56.5526 16.8052C55.9926 16.8052 55.3726 16.8752 54.6926 17.0152C54.0126 17.1352 53.3126 17.3652 52.5926 17.7052L51.5426 15.1252C52.3826 14.7052 53.2626 14.3852 54.1826 14.1652C55.1226 13.9452 56.0526 13.8352 56.9726 13.8352C58.2726 13.8352 59.3426 14.0752 60.1826 14.5552C61.0426 15.0152 61.6826 15.6452 62.1026 16.4452C62.5226 17.2452 62.7326 18.1652 62.7326 19.2052V28.8052H60.0626L59.2826 26.0752L60.9926 25.5652C60.6526 26.7652 60.0226 27.6752 59.1026 28.2952C58.2026 28.9152 57.0926 29.2252 55.7726 29.2252ZM56.5826 26.3752C57.3826 26.3752 58.0226 26.1852 58.5026 25.8052C59.0026 25.4252 59.2526 24.9052 59.2526 24.2452C59.2526 23.5452 59.0026 23.0152 58.5026 22.6552C58.0226 22.2752 57.3826 22.0852 56.5826 22.0852C55.7826 22.0852 55.1326 22.2752 54.6326 22.6552C54.1526 23.0152 53.9126 23.5452 53.9126 24.2452C53.9126 24.9052 54.1526 25.4252 54.6326 25.8052C55.1326 26.1852 55.7826 26.3752 56.5826 26.3752ZM69.803 27.2152L63.983 14.1652H67.583L72.863 26.0152L69.803 27.2152ZM66.203 34.5052L75.293 14.1652H78.893L69.803 34.5052H66.203Z" fill="white"/>
</svg>
