<svg width="99" height="25" viewBox="0 0 99 25" fill="none" xmlns="http://www.w3.org/2000/svg">
<path d="M91.2695 6.30615C92.6423 6.30615 93.865 6.585 94.9375 7.1427C96.0314 7.67895 96.8894 8.51551 97.5115 9.65236C98.1335 10.7678 98.4446 12.2049 98.4446 13.9638V23.8737H93.4253V14.736C93.4253 13.3418 93.1142 12.3122 92.4922 11.6472C91.8916 10.9823 91.0336 10.6498 89.9182 10.6498C89.1245 10.6498 88.406 10.8214 87.7625 11.1646C87.1404 11.4863 86.6471 11.9904 86.2824 12.6768C85.9392 13.3632 85.7676 14.2427 85.7676 15.3152V23.8737H80.7483V6.56355H85.5424V11.3576L84.6415 9.90976C85.2635 8.75146 86.1537 7.86128 87.312 7.23923C88.4703 6.61718 89.7895 6.30615 91.2695 6.30615Z" fill="white"/>
<path d="M71.5081 23.8737V20.4954L71.1863 19.7553V13.7064C71.1863 12.6339 70.8538 11.7974 70.1889 11.1968C69.5454 10.5962 68.548 10.2959 67.1966 10.2959C66.2743 10.2959 65.3626 10.446 64.4617 10.7463C63.5823 11.0252 62.8315 11.4113 62.2095 11.9046L60.4077 8.39753C61.3515 7.73258 62.4883 7.21778 63.8182 6.85313C65.1481 6.48848 66.4995 6.30615 67.8723 6.30615C70.5106 6.30615 72.5591 6.9282 74.0177 8.1723C75.4763 9.41641 76.2056 11.3576 76.2056 13.996V23.8737H71.5081ZM66.2313 24.1311C64.88 24.1311 63.7217 23.9059 62.7564 23.4555C61.7912 22.9836 61.0512 22.3508 60.5364 21.5571C60.0216 20.7635 59.7642 19.8733 59.7642 18.8866C59.7642 17.857 60.0108 16.9561 60.5042 16.1839C61.019 15.4117 61.8234 14.8111 62.9173 14.3821C64.0113 13.9316 65.4377 13.7064 67.1966 13.7064H71.7976V16.6343H67.7436C66.5638 16.6343 65.7487 16.8274 65.2983 17.2135C64.8693 17.5996 64.6548 18.0822 64.6548 18.6614C64.6548 19.3049 64.9014 19.8197 65.3948 20.2058C65.9096 20.5704 66.6067 20.7528 67.4862 20.7528C68.3227 20.7528 69.0735 20.5597 69.7384 20.1736C70.4034 19.7661 70.886 19.1762 71.1863 18.404L71.9585 20.7206C71.5939 21.836 70.9289 22.6833 69.9637 23.2624C68.9984 23.8416 67.7543 24.1311 66.2313 24.1311Z" fill="white"/>
<path d="M49.1894 24.1313C47.6665 24.1313 46.358 23.8095 45.2641 23.166C44.1701 22.5225 43.3336 21.5466 42.7544 20.2381C42.1753 18.9082 41.8857 17.2351 41.8857 15.2188C41.8857 13.181 42.186 11.5079 42.7866 10.1995C43.4086 8.89104 44.2666 7.91507 45.3606 7.27156C46.4546 6.62806 47.7308 6.30631 49.1894 6.30631C50.8196 6.30631 52.2782 6.67096 53.5652 7.40026C54.8737 8.12957 55.9033 9.15917 56.654 10.4891C57.4262 11.819 57.8123 13.3955 57.8123 15.2188C57.8123 17.0206 57.4262 18.5865 56.654 19.9164C55.9033 21.2463 54.8737 22.2866 53.5652 23.0373C52.2782 23.7666 50.8196 24.1313 49.1894 24.1313ZM38.9578 23.8739V0H43.9771V10.0708L43.6553 15.1866L43.7518 20.3346V23.8739H38.9578ZM48.3207 20.0129C49.1573 20.0129 49.8973 19.8198 50.5408 19.4337C51.2057 19.0476 51.7313 18.5007 52.1174 17.7928C52.5249 17.0635 52.7287 16.2055 52.7287 15.2188C52.7287 14.2107 52.5249 13.3527 52.1174 12.6448C51.7313 11.9369 51.2057 11.39 50.5408 11.0039C49.8973 10.6178 49.1573 10.4247 48.3207 10.4247C47.4842 10.4247 46.7334 10.6178 46.0685 11.0039C45.4035 11.39 44.878 11.9369 44.4919 12.6448C44.1058 13.3527 43.9127 14.2107 43.9127 15.2188C43.9127 16.2055 44.1058 17.0635 44.4919 17.7928C44.878 18.5007 45.4035 19.0476 46.0685 19.4337C46.7334 19.8198 47.4842 20.0129 48.3207 20.0129Z" fill="white"/>
<path d="M25.1958 23.8737V6.56355H29.9899V11.4542L29.3142 10.0385C29.829 8.81581 30.6548 7.89345 31.7917 7.2714C32.9285 6.6279 34.3121 6.30615 35.9423 6.30615V10.9394C35.7278 10.9179 35.5347 10.9072 35.3631 10.9072C35.1915 10.8857 35.0092 10.875 34.8161 10.875C33.4433 10.875 32.3279 11.2718 31.4699 12.0655C30.6334 12.8377 30.2151 14.0496 30.2151 15.7013V23.8737H25.1958Z" fill="white"/>
<path d="M10.1995 24.2597C7.00344 24.2597 4.50451 23.3695 2.70271 21.5892C0.900902 19.8088 0 17.267 0 13.9637V1.35107H5.21236V13.7706C5.21236 15.9157 5.65209 17.4601 6.53154 18.4039C7.41099 19.3477 8.64437 19.8196 10.2317 19.8196C11.819 19.8196 13.0524 19.3477 13.9318 18.4039C14.8113 17.4601 15.251 15.9157 15.251 13.7706V1.35107H20.399V13.9637C20.399 17.267 19.4981 19.8088 17.6963 21.5892C15.8945 23.3695 13.3956 24.2597 10.1995 24.2597Z" fill="white"/>
</svg>
