<svg width="99" height="25" viewBox="0 0 99 25" fill="none" xmlns="http://www.w3.org/2000/svg">
<path d="M91.2693 6.30469C92.6421 6.30469 93.8647 6.58354 94.9373 7.14124C96.0312 7.67749 96.8892 8.51404 97.5113 9.65089C98.1333 10.7663 98.4443 12.2034 98.4443 13.9624V23.8723H93.425V14.7346C93.425 13.3403 93.114 12.3107 92.4919 11.6457C91.8913 10.9808 91.0333 10.6483 89.9179 10.6483C89.1243 10.6483 88.4057 10.8199 87.7622 11.1631C87.1402 11.4849 86.6468 11.9889 86.2822 12.6753C85.939 13.3617 85.7674 14.2412 85.7674 15.3137V23.8723H80.748V6.56209H85.5421V11.3562L84.6412 9.90829C85.2633 8.74999 86.1535 7.85981 87.3118 7.23776C88.4701 6.61571 89.7892 6.30469 91.2693 6.30469Z" fill="black"/>
<path d="M71.5076 23.8723V20.4939L71.1858 19.7539V13.705C71.1858 12.6324 70.8533 11.7959 70.1884 11.1953C69.5449 10.5947 68.5475 10.2944 67.1961 10.2944C66.2738 10.2944 65.3621 10.4445 64.4612 10.7448C63.5818 11.0237 62.831 11.4098 62.209 11.9031L60.4072 8.39607C61.351 7.73111 62.4878 7.21631 63.8177 6.85166C65.1476 6.48701 66.499 6.30469 67.8718 6.30469C70.5101 6.30469 72.5586 6.92674 74.0172 8.17084C75.4758 9.41494 76.2051 11.3562 76.2051 13.9945V23.8723H71.5076ZM66.2309 24.1297C64.8795 24.1297 63.7212 23.9044 62.756 23.454C61.7907 22.9821 61.0507 22.3493 60.5359 21.5557C60.0211 20.762 59.7637 19.8718 59.7637 18.8851C59.7637 17.8555 60.0103 16.9546 60.5037 16.1824C61.0185 15.4102 61.8229 14.8096 62.9168 14.3806C64.0108 13.9302 65.4372 13.705 67.1961 13.705H71.7971V16.6329H67.7431C66.5633 16.6329 65.7482 16.8259 65.2978 17.212C64.8688 17.5981 64.6543 18.0808 64.6543 18.6599C64.6543 19.3034 64.901 19.8182 65.3943 20.2043C65.9091 20.569 66.6062 20.7513 67.4857 20.7513C68.3222 20.7513 69.073 20.5582 69.7379 20.1721C70.4029 19.7646 70.8855 19.1747 71.1858 18.4025L71.958 20.7191C71.5934 21.8345 70.9284 22.6818 69.9632 23.2609C68.9979 23.8401 67.7538 24.1297 66.2309 24.1297Z" fill="black"/>
<path d="M49.1894 24.1313C47.6665 24.1313 46.358 23.8095 45.2641 23.166C44.1701 22.5225 43.3336 21.5466 42.7544 20.2381C42.1753 18.9082 41.8857 17.2351 41.8857 15.2188C41.8857 13.181 42.186 11.5079 42.7866 10.1995C43.4086 8.89104 44.2666 7.91507 45.3606 7.27156C46.4546 6.62806 47.7308 6.30631 49.1894 6.30631C50.8196 6.30631 52.2782 6.67096 53.5652 7.40026C54.8737 8.12957 55.9033 9.15917 56.654 10.4891C57.4262 11.819 57.8123 13.3955 57.8123 15.2188C57.8123 17.0206 57.4262 18.5865 56.654 19.9164C55.9033 21.2463 54.8737 22.2866 53.5652 23.0373C52.2782 23.7666 50.8196 24.1313 49.1894 24.1313ZM38.9578 23.8739V0H43.9771V10.0708L43.6553 15.1866L43.7518 20.3346V23.8739H38.9578ZM48.3207 20.0129C49.1573 20.0129 49.8973 19.8198 50.5408 19.4337C51.2057 19.0476 51.7313 18.5007 52.1174 17.7928C52.5249 17.0635 52.7287 16.2055 52.7287 15.2188C52.7287 14.2107 52.5249 13.3527 52.1174 12.6448C51.7313 11.9369 51.2057 11.39 50.5408 11.0039C49.8973 10.6178 49.1573 10.4247 48.3207 10.4247C47.4842 10.4247 46.7334 10.6178 46.0685 11.0039C45.4035 11.39 44.878 11.9369 44.4919 12.6448C44.1058 13.3527 43.9127 14.2107 43.9127 15.2188C43.9127 16.2055 44.1058 17.0635 44.4919 17.7928C44.878 18.5007 45.4035 19.0476 46.0685 19.4337C46.7334 19.8198 47.4842 20.0129 48.3207 20.0129Z" fill="black"/>
<path d="M25.1953 23.8723V6.56209H29.9894V11.4527L29.3137 10.037C29.8285 8.81434 30.6543 7.89199 31.7912 7.26994C32.928 6.62644 34.3116 6.30469 35.9418 6.30469V10.9379C35.7273 10.9164 35.5342 10.9057 35.3626 10.9057C35.191 10.8843 35.0087 10.8735 34.8157 10.8735C33.4429 10.8735 32.3274 11.2704 31.4694 12.064C30.6329 12.8362 30.2146 14.0482 30.2146 15.6998V23.8723H25.1953Z" fill="black"/>
<path d="M10.1995 24.2602C7.00344 24.2602 4.50451 23.37 2.70271 21.5897C0.900902 19.8093 0 17.2675 0 13.9642V1.35156H5.21236V13.7711C5.21236 15.9161 5.65209 17.4605 6.53154 18.4043C7.41099 19.3481 8.64437 19.82 10.2317 19.82C11.819 19.82 13.0524 19.3481 13.9318 18.4043C14.8113 17.4605 15.251 15.9161 15.251 13.7711V1.35156H20.399V13.9642C20.399 17.2675 19.4981 19.8093 17.6963 21.5897C15.8945 23.37 13.3956 24.2602 10.1995 24.2602Z" fill="black"/>
</svg>
