<svg width="19" height="14" viewBox="0 0 19 14" fill="none" xmlns="http://www.w3.org/2000/svg">
<path d="M9.75 3.65625C9.8125 3.59375 9.90625 3.5625 10 3.5625C10.0625 3.5625 10.1562 3.59375 10.2188 3.65625L16 8.375V13.5C16 13.7812 15.75 14 15.5 14H11.9688C11.7188 14 11.4688 13.7812 11.4688 13.5V10.5C11.4688 10.25 11.25 10 10.9688 10H8.96875C8.71875 10 8.46875 10.25 8.46875 10.5V13.5C8.46875 13.7812 8.25 14 8 14H4.5C4.21875 14 4 13.7812 4 13.5V8.40625L9.75 3.65625ZM18.8438 6.875C18.9375 6.9375 19 7.0625 19 7.15625C19 7.25 18.9688 7.34375 18.9062 7.40625L18.0938 8.375C18.0312 8.46875 17.9375 8.5 17.8125 8.5C17.7188 8.5 17.625 8.46875 17.5625 8.40625L10.2188 2.375C10.1562 2.3125 10.0625 2.28125 10 2.28125C9.90625 2.28125 9.8125 2.3125 9.75 2.375L2.40625 8.40625C2.34375 8.46875 2.25 8.5 2.15625 8.5C2.03125 8.5 1.9375 8.46875 1.875 8.375L1.0625 7.40625C1.03125 7.34375 0.96875 7.25 0.96875 7.15625C0.96875 7.0625 1.03125 6.9375 1.125 6.875L9.03125 0.34375C9.28125 0.15625 9.625 0.03125 10 0.03125C10.3438 0.03125 10.6875 0.15625 10.9375 0.34375L13.75 2.65625V0.40625C13.75 0.1875 13.9062 0.03125 14.125 0.03125H15.875C16.0625 0.03125 16.25 0.1875 16.25 0.40625V4.71875L18.8438 6.875Z" fill="black"/>
</svg>
